# xmcd
# 
# Track frame offsets:
#     150
#     18263
#     36504
#     54582
# 
# Disc length: 968
# 
# Revision: 4
# Processed by: cddbd v1.5.2PL0 Copyright (c) Steve Scherf et al.
# Submitted via: BonkEnc v1.0.8
# 
DISCID=2d03c604
DTITLE=新谷良子 - 月とオルゴール
DYEAR=2008
DGENRE=JPop
TTITLE0=月とオルゴール
TTITLE1=アイロニカルスター
TTITLE2=月とオルゴール Off Vocal
TTITLE3=アイロニカルスター Off Vocal
EXTD=
EXTT0=
EXTT1=
EXTT2=
EXTT3=
PLAYORDER=
